<svg xmlns="http://www.w3.org/2000/svg" width="182.76" height="155.594" viewBox="0 0 182.76 155.594">
  <g id="img-EmptyData-L" transform="translate(-837 -560.203)">
    <text id="Không_có_dữ_liệu_" data-name="Không có dữ liệu " transform="translate(878 712.797)" font-size="13" font-family="Roboto-Regular, Roboto"><tspan x="0" y="0">Không có dữ liệu </tspan></text>
    <g id="Group_47461" data-name="Group 47461" transform="translate(838.022 531.203)">
      <g id="Group_1" data-name="Group 1" transform="translate(-1.023 38.585)">
        <path id="Path_1" data-name="Path 1" d="M21.422,71.53h138.23a7.422,7.422,0,1,0,0-14.843H122.543a7.444,7.444,0,0,1-7.422-7.422,7.289,7.289,0,0,1,7.422-7.422h9.277a7.422,7.422,0,1,0,0-14.843H36.265a7.422,7.422,0,0,0,0,14.843H50.181A7.444,7.444,0,0,1,57.6,49.265a7.289,7.289,0,0,1-7.422,7.422H21.422a7.422,7.422,0,1,0,0,14.843Z" transform="translate(-14 -27)" fill="#1aa4c8" opacity="0.15" style="isolation: isolate"/>
        <path id="Path_2" data-name="Path 2" d="M173.977,91H78.422a7.422,7.422,0,1,0,0,14.843h95.555a7.422,7.422,0,1,0,0-14.843Z" transform="translate(1.362 -44.503)" fill="#1aa4c8" opacity="0.15" style="isolation: isolate"/>
        <path id="Path_3" data-name="Path 3" d="M147.736,132.277v-1.855A7.444,7.444,0,0,0,140.314,123H23.422A7.444,7.444,0,0,0,16,130.422v1.855a7.444,7.444,0,0,0,7.422,7.422H140.314A7.444,7.444,0,0,0,147.736,132.277Z" transform="translate(9.754 -42.524)" fill="#1aa4c8" opacity="0.15" style="isolation: isolate"/>
      </g>
      <g id="Group_3" data-name="Group 3" transform="translate(14.748 30)">
        <g id="Group_2" data-name="Group 2" transform="translate(27.831 32.816)">
          <path id="Path_5" data-name="Path 5" d="M102.229,154.856H45.639A4.593,4.593,0,0,1,41,150.308V80.639A4.593,4.593,0,0,1,45.548,76h56.682a4.593,4.593,0,0,1,4.639,4.548v69.67a4.593,4.593,0,0,1-4.548,4.639Z" transform="translate(-40.072 -67.651)" fill="#fff"/>
          <path id="Path_6" data-name="Path 6" d="M102.519,154.928H49.639A4.593,4.593,0,0,1,45,150.381V81.639A4.593,4.593,0,0,1,49.548,77h52.971a4.593,4.593,0,0,1,4.639,4.548V150.29a4.593,4.593,0,0,1-4.548,4.639Z" transform="translate(-40.361 -67.723)" fill="#1aa4c8" opacity="0.15" style="isolation: isolate"/>
          <path id="Path_7" data-name="Path 7" d="M51.133,154.856H44.639A4.593,4.593,0,0,1,40,150.308V80.639A4.593,4.593,0,0,1,44.548,76h58.537a4.593,4.593,0,0,1,4.639,4.548v69.67a4.593,4.593,0,0,1-4.548,4.639H62.265" transform="translate(-40 -67.651)" fill="none" stroke="#1aa4c8" stroke-linecap="round" stroke-linejoin="round" stroke-width="2"/>
          <line id="Line_1" data-name="Line 1" transform="translate(15.092 87.37)" fill="none" stroke="#1aa4c8" stroke-linecap="round" stroke-linejoin="round" stroke-width="2"/>
          <path id="Path_8" data-name="Path 8" d="M59.247,82.771h0A3.287,3.287,0,0,1,56,79.524V70.247A3.287,3.287,0,0,1,59.247,67h0a3.287,3.287,0,0,1,3.247,3.247v9.277A3.287,3.287,0,0,1,59.247,82.771Z" transform="translate(-41.156 -67)" fill="#fff" stroke="#1aa4c8" stroke-linecap="round" stroke-linejoin="round" stroke-width="2"/>
          <line id="Line_2" data-name="Line 2" x2="67.723" transform="translate(0 20.781)" fill="none" stroke="#1aa4c8" stroke-linecap="round" stroke-linejoin="round" stroke-width="2"/>
        </g>
        <path id="Path_9" data-name="Path 9" d="M139.085,142.567H80.639A4.593,4.593,0,0,1,76,138.019V64.639A4.593,4.593,0,0,1,80.548,60h58.537a4.593,4.593,0,0,1,4.639,4.548v73.381a4.593,4.593,0,0,1-4.548,4.639Z" transform="translate(-14.771 -33.678)" fill="#1aa4c8" opacity="0.5" style="isolation: isolate"/>
        <circle id="Ellipse_1" data-name="Ellipse 1" cx="3.577" cy="3.577" r="3.577" transform="translate(65.817 0)" fill="none" stroke="#1aa4c8" stroke-linecap="round" stroke-linejoin="round" stroke-width="2"/>
        <circle id="Ellipse_2" data-name="Ellipse 2" cx="3.577" cy="3.577" r="3.577" transform="translate(0 48.647)" fill="none" stroke="#1aa4c8" stroke-linecap="round" stroke-linejoin="round" stroke-width="2"/>
        <circle id="Ellipse_3" data-name="Ellipse 3" cx="4.292" cy="4.292" r="4.292" transform="translate(144.51 108.74)" fill="none" stroke="#1aa4c8" stroke-linecap="round" stroke-linejoin="round" stroke-width="2"/>
        <path id="Path_10" data-name="Path 10" d="M93.627,55.2h5.566a10.679,10.679,0,0,1,21.338,0h18.554a4.593,4.593,0,0,1,4.639,4.548v73.381a4.593,4.593,0,0,1-4.548,4.639H80.639A4.593,4.593,0,0,1,76,133.224V59.843A4.593,4.593,0,0,1,80.548,55.2h3.8" transform="translate(-14.771 -32.593)" fill="#fff" stroke="#1aa4c8" stroke-linecap="round" stroke-linejoin="round" stroke-width="2"/>
        <line id="Line_6" data-name="Line 6" transform="translate(75.832 22.893)" fill="none" stroke="#1aa4c8" stroke-linecap="round" stroke-linejoin="round" stroke-width="2"/>
        <line id="Line_7" data-name="Line 7" x2="11.446" transform="translate(61.524 111.602)" fill="none" stroke="#1aa4c8" stroke-linecap="round" stroke-linejoin="round" stroke-width="2"/>
        <line id="Line_8" data-name="Line 8" x2="1.431" transform="translate(77.263 111.602)" fill="none" stroke="#1aa4c8" stroke-linecap="round" stroke-linejoin="round" stroke-width="2"/>
        <path id="Path_12" data-name="Path 12" d="M101,151.639h37.109A12.839,12.839,0,0,0,147.386,147" transform="translate(-16.578 -39.966)" fill="none" stroke="#1aa4c8" stroke-linecap="round" stroke-linejoin="round" stroke-width="2"/>
        <ellipse id="Ellipse_4" data-name="Ellipse 4" cx="4.292" cy="3.577" rx="4.292" ry="3.577" transform="translate(91.571 18.6)" fill="none" stroke="#1aa4c8" stroke-linecap="round" stroke-linejoin="round" stroke-width="2"/>
        <path id="Path_14" data-name="Path 14" d="M143.566,55H138a4.593,4.593,0,0,1,4.639,4.548v74.308a4.593,4.593,0,0,1-4.548,4.639h5.475a4.593,4.593,0,0,0,4.639-4.548V59.639A4.593,4.593,0,0,0,143.657,55Z" transform="translate(-19.252 -33.316)" fill="#1aa4c8" opacity="0.15" style="isolation: isolate"/>
      </g>
    </g>
  </g>
</svg>
